<mxfile host="app.diagrams.net" modified="2021-07-12T15:12:44.729Z" agent="5.0 (Macintosh; Intel Mac OS X 10_15_7) AppleWebKit/605.1.15 (KHTML, like Gecko) Version/14.1.1 Safari/605.1.15" etag="1ave2pOZ35DNubkX4fW1" version="14.8.5" type="github">
  <diagram id="FrNE8DgMukOEDrKhMedF" name="第 1 页">
    <mxGraphModel dx="946" dy="645" grid="0" gridSize="10" guides="1" tooltips="1" connect="1" arrows="1" fold="1" page="1" pageScale="1" pageWidth="827" pageHeight="1169" background="#FFFFFF" math="0" shadow="0">
      <root>
        <mxCell id="0" />
        <mxCell id="1" parent="0" />
        <mxCell id="WFalGH5oOqXYDlWb-IyM-28" value="" style="edgeStyle=orthogonalEdgeStyle;rounded=0;orthogonalLoop=1;jettySize=auto;html=1;" edge="1" parent="1" source="WFalGH5oOqXYDlWb-IyM-1" target="WFalGH5oOqXYDlWb-IyM-7">
          <mxGeometry relative="1" as="geometry" />
        </mxCell>
        <mxCell id="WFalGH5oOqXYDlWb-IyM-29" value="提供业务api" style="edgeLabel;html=1;align=center;verticalAlign=middle;resizable=0;points=[];" vertex="1" connectable="0" parent="WFalGH5oOqXYDlWb-IyM-28">
          <mxGeometry x="0.225" y="-3" relative="1" as="geometry">
            <mxPoint as="offset" />
          </mxGeometry>
        </mxCell>
        <mxCell id="WFalGH5oOqXYDlWb-IyM-30" value="提供任务api" style="edgeStyle=orthogonalEdgeStyle;rounded=0;orthogonalLoop=1;jettySize=auto;html=1;" edge="1" parent="1" source="WFalGH5oOqXYDlWb-IyM-1" target="WFalGH5oOqXYDlWb-IyM-6">
          <mxGeometry relative="1" as="geometry" />
        </mxCell>
        <mxCell id="WFalGH5oOqXYDlWb-IyM-1" value="HTTP模块" style="rounded=0;whiteSpace=wrap;html=1;fillColor=#d5e8d4;strokeColor=#82b366;" vertex="1" parent="1">
          <mxGeometry x="320" y="180" width="120" height="60" as="geometry" />
        </mxCell>
        <mxCell id="WFalGH5oOqXYDlWb-IyM-47" style="edgeStyle=orthogonalEdgeStyle;rounded=0;orthogonalLoop=1;jettySize=auto;html=1;entryX=1.05;entryY=0.125;entryDx=0;entryDy=0;entryPerimeter=0;" edge="1" parent="1" source="WFalGH5oOqXYDlWb-IyM-2" target="WFalGH5oOqXYDlWb-IyM-14">
          <mxGeometry relative="1" as="geometry" />
        </mxCell>
        <mxCell id="WFalGH5oOqXYDlWb-IyM-57" value="初始化任务模板" style="edgeLabel;html=1;align=center;verticalAlign=middle;resizable=0;points=[];" vertex="1" connectable="0" parent="WFalGH5oOqXYDlWb-IyM-47">
          <mxGeometry x="-0.0149" relative="1" as="geometry">
            <mxPoint as="offset" />
          </mxGeometry>
        </mxCell>
        <mxCell id="WFalGH5oOqXYDlWb-IyM-2" value="任务模板" style="rounded=0;whiteSpace=wrap;html=1;fillColor=#ffe6cc;strokeColor=#d79b00;" vertex="1" parent="1">
          <mxGeometry x="320" y="320" width="120" height="60" as="geometry" />
        </mxCell>
        <mxCell id="WFalGH5oOqXYDlWb-IyM-48" style="edgeStyle=orthogonalEdgeStyle;rounded=0;orthogonalLoop=1;jettySize=auto;html=1;entryX=1;entryY=0.792;entryDx=0;entryDy=0;entryPerimeter=0;" edge="1" parent="1" source="WFalGH5oOqXYDlWb-IyM-3" target="WFalGH5oOqXYDlWb-IyM-14">
          <mxGeometry relative="1" as="geometry" />
        </mxCell>
        <mxCell id="WFalGH5oOqXYDlWb-IyM-58" value="管理设备" style="edgeLabel;html=1;align=center;verticalAlign=middle;resizable=0;points=[];" vertex="1" connectable="0" parent="WFalGH5oOqXYDlWb-IyM-48">
          <mxGeometry x="0.1577" relative="1" as="geometry">
            <mxPoint as="offset" />
          </mxGeometry>
        </mxCell>
        <mxCell id="WFalGH5oOqXYDlWb-IyM-3" value="设备管理模块" style="rounded=0;whiteSpace=wrap;html=1;fillColor=#ffe6cc;strokeColor=#d79b00;" vertex="1" parent="1">
          <mxGeometry x="320" y="480" width="120" height="60" as="geometry" />
        </mxCell>
        <mxCell id="WFalGH5oOqXYDlWb-IyM-4" value="RPC模块" style="rounded=0;whiteSpace=wrap;html=1;fillColor=#ffe6cc;strokeColor=#d79b00;" vertex="1" parent="1">
          <mxGeometry x="320" y="620" width="120" height="60" as="geometry" />
        </mxCell>
        <mxCell id="WFalGH5oOqXYDlWb-IyM-26" style="edgeStyle=orthogonalEdgeStyle;rounded=0;orthogonalLoop=1;jettySize=auto;html=1;entryX=0.25;entryY=0;entryDx=0;entryDy=0;exitX=0.25;exitY=1;exitDx=0;exitDy=0;" edge="1" parent="1" source="WFalGH5oOqXYDlWb-IyM-6" target="WFalGH5oOqXYDlWb-IyM-8">
          <mxGeometry relative="1" as="geometry" />
        </mxCell>
        <mxCell id="WFalGH5oOqXYDlWb-IyM-32" value="1. 发起任务" style="edgeLabel;html=1;align=center;verticalAlign=middle;resizable=0;points=[];" vertex="1" connectable="0" parent="WFalGH5oOqXYDlWb-IyM-26">
          <mxGeometry x="-0.25" y="-2" relative="1" as="geometry">
            <mxPoint as="offset" />
          </mxGeometry>
        </mxCell>
        <mxCell id="WFalGH5oOqXYDlWb-IyM-67" style="edgeStyle=orthogonalEdgeStyle;rounded=0;orthogonalLoop=1;jettySize=auto;html=1;entryX=1;entryY=0.5;entryDx=0;entryDy=0;" edge="1" parent="1" source="WFalGH5oOqXYDlWb-IyM-6" target="WFalGH5oOqXYDlWb-IyM-51">
          <mxGeometry relative="1" as="geometry" />
        </mxCell>
        <mxCell id="WFalGH5oOqXYDlWb-IyM-68" value="a. 获取设备任务状态" style="edgeLabel;html=1;align=center;verticalAlign=middle;resizable=0;points=[];" vertex="1" connectable="0" parent="WFalGH5oOqXYDlWb-IyM-67">
          <mxGeometry x="-0.6654" relative="1" as="geometry">
            <mxPoint as="offset" />
          </mxGeometry>
        </mxCell>
        <mxCell id="WFalGH5oOqXYDlWb-IyM-6" value="HTTP API" style="rounded=0;whiteSpace=wrap;html=1;fillColor=#d5e8d4;strokeColor=#82b366;" vertex="1" parent="1">
          <mxGeometry x="560" y="180" width="120" height="60" as="geometry" />
        </mxCell>
        <mxCell id="WFalGH5oOqXYDlWb-IyM-18" style="edgeStyle=orthogonalEdgeStyle;rounded=0;orthogonalLoop=1;jettySize=auto;html=1;entryX=0.5;entryY=0;entryDx=0;entryDy=0;" edge="1" parent="1" source="WFalGH5oOqXYDlWb-IyM-7" target="WFalGH5oOqXYDlWb-IyM-14">
          <mxGeometry relative="1" as="geometry" />
        </mxCell>
        <mxCell id="WFalGH5oOqXYDlWb-IyM-61" value="增删改查" style="edgeLabel;html=1;align=center;verticalAlign=middle;resizable=0;points=[];" vertex="1" connectable="0" parent="WFalGH5oOqXYDlWb-IyM-18">
          <mxGeometry x="-0.3" relative="1" as="geometry">
            <mxPoint as="offset" />
          </mxGeometry>
        </mxCell>
        <mxCell id="WFalGH5oOqXYDlWb-IyM-7" value="HTTP API" style="rounded=0;whiteSpace=wrap;html=1;fillColor=#d5e8d4;strokeColor=#82b366;" vertex="1" parent="1">
          <mxGeometry x="60" y="180" width="120" height="60" as="geometry" />
        </mxCell>
        <mxCell id="WFalGH5oOqXYDlWb-IyM-36" style="edgeStyle=orthogonalEdgeStyle;rounded=0;orthogonalLoop=1;jettySize=auto;html=1;entryX=0.5;entryY=0;entryDx=0;entryDy=0;" edge="1" parent="1" source="WFalGH5oOqXYDlWb-IyM-8" target="WFalGH5oOqXYDlWb-IyM-10">
          <mxGeometry relative="1" as="geometry" />
        </mxCell>
        <mxCell id="WFalGH5oOqXYDlWb-IyM-37" value="2.加入对应设备&lt;br&gt;的任务队列" style="edgeLabel;html=1;align=center;verticalAlign=middle;resizable=0;points=[];" vertex="1" connectable="0" parent="WFalGH5oOqXYDlWb-IyM-36">
          <mxGeometry x="-0.5067" y="-3" relative="1" as="geometry">
            <mxPoint x="30" y="-19" as="offset" />
          </mxGeometry>
        </mxCell>
        <mxCell id="WFalGH5oOqXYDlWb-IyM-8" value="创建指定任务" style="rounded=0;whiteSpace=wrap;html=1;fillColor=#dae8fc;strokeColor=#6c8ebf;" vertex="1" parent="1">
          <mxGeometry x="560" y="320" width="120" height="60" as="geometry" />
        </mxCell>
        <mxCell id="WFalGH5oOqXYDlWb-IyM-74" style="edgeStyle=orthogonalEdgeStyle;rounded=0;orthogonalLoop=1;jettySize=auto;html=1;exitX=1;exitY=0;exitDx=0;exitDy=0;entryX=0.75;entryY=1;entryDx=0;entryDy=0;" edge="1" parent="1" source="WFalGH5oOqXYDlWb-IyM-10" target="WFalGH5oOqXYDlWb-IyM-6">
          <mxGeometry relative="1" as="geometry">
            <Array as="points">
              <mxPoint x="845" y="294" />
              <mxPoint x="650" y="294" />
            </Array>
          </mxGeometry>
        </mxCell>
        <mxCell id="WFalGH5oOqXYDlWb-IyM-75" value="3. 响应结果" style="edgeLabel;html=1;align=center;verticalAlign=middle;resizable=0;points=[];" vertex="1" connectable="0" parent="WFalGH5oOqXYDlWb-IyM-74">
          <mxGeometry x="0.2586" y="-3" relative="1" as="geometry">
            <mxPoint as="offset" />
          </mxGeometry>
        </mxCell>
        <mxCell id="WFalGH5oOqXYDlWb-IyM-10" value="设备任务队列" style="ellipse;whiteSpace=wrap;html=1;fillColor=#f8cecc;strokeColor=#b85450;" vertex="1" parent="1">
          <mxGeometry x="760" y="400" width="100" height="60" as="geometry" />
        </mxCell>
        <mxCell id="WFalGH5oOqXYDlWb-IyM-52" style="edgeStyle=orthogonalEdgeStyle;rounded=0;orthogonalLoop=1;jettySize=auto;html=1;entryX=1;entryY=0.5;entryDx=0;entryDy=0;" edge="1" parent="1" source="WFalGH5oOqXYDlWb-IyM-11" target="WFalGH5oOqXYDlWb-IyM-51">
          <mxGeometry relative="1" as="geometry">
            <Array as="points">
              <mxPoint x="880" y="590" />
              <mxPoint x="880" y="510" />
            </Array>
          </mxGeometry>
        </mxCell>
        <mxCell id="WFalGH5oOqXYDlWb-IyM-53" value="8.变更任务状态" style="edgeLabel;html=1;align=center;verticalAlign=middle;resizable=0;points=[];" vertex="1" connectable="0" parent="WFalGH5oOqXYDlWb-IyM-52">
          <mxGeometry x="0.1167" y="2" relative="1" as="geometry">
            <mxPoint as="offset" />
          </mxGeometry>
        </mxCell>
        <mxCell id="WFalGH5oOqXYDlWb-IyM-11" value="Loop Recv 任务结果" style="ellipse;whiteSpace=wrap;html=1;fillColor=#f8cecc;strokeColor=#b85450;" vertex="1" parent="1">
          <mxGeometry x="760" y="560" width="100" height="60" as="geometry" />
        </mxCell>
        <mxCell id="WFalGH5oOqXYDlWb-IyM-41" value="5. rat接收任务&lt;br&gt;并处理" style="edgeStyle=orthogonalEdgeStyle;rounded=0;orthogonalLoop=1;jettySize=auto;html=1;entryX=0.133;entryY=0;entryDx=0;entryDy=0;exitX=0.117;exitY=1;exitDx=0;exitDy=0;exitPerimeter=0;entryPerimeter=0;" edge="1" parent="1" source="WFalGH5oOqXYDlWb-IyM-12" target="WFalGH5oOqXYDlWb-IyM-13">
          <mxGeometry relative="1" as="geometry" />
        </mxCell>
        <mxCell id="WFalGH5oOqXYDlWb-IyM-45" style="edgeStyle=orthogonalEdgeStyle;rounded=0;orthogonalLoop=1;jettySize=auto;html=1;entryX=0.5;entryY=1;entryDx=0;entryDy=0;" edge="1" parent="1" source="WFalGH5oOqXYDlWb-IyM-12" target="WFalGH5oOqXYDlWb-IyM-11">
          <mxGeometry relative="1" as="geometry" />
        </mxCell>
        <mxCell id="WFalGH5oOqXYDlWb-IyM-46" value="7. 通知设备&lt;br&gt;管理器" style="edgeLabel;html=1;align=center;verticalAlign=middle;resizable=0;points=[];" vertex="1" connectable="0" parent="WFalGH5oOqXYDlWb-IyM-45">
          <mxGeometry x="-0.3067" y="1" relative="1" as="geometry">
            <mxPoint as="offset" />
          </mxGeometry>
        </mxCell>
        <mxCell id="WFalGH5oOqXYDlWb-IyM-12" value="RCP服务" style="rounded=0;whiteSpace=wrap;html=1;fillColor=#dae8fc;strokeColor=#6c8ebf;" vertex="1" parent="1">
          <mxGeometry x="560" y="620" width="120" height="60" as="geometry" />
        </mxCell>
        <mxCell id="WFalGH5oOqXYDlWb-IyM-44" value="6. 返回结果" style="edgeStyle=orthogonalEdgeStyle;rounded=0;orthogonalLoop=1;jettySize=auto;html=1;entryX=0.817;entryY=1;entryDx=0;entryDy=0;entryPerimeter=0;exitX=0.817;exitY=0;exitDx=0;exitDy=0;exitPerimeter=0;" edge="1" parent="1" source="WFalGH5oOqXYDlWb-IyM-13" target="WFalGH5oOqXYDlWb-IyM-12">
          <mxGeometry relative="1" as="geometry" />
        </mxCell>
        <mxCell id="WFalGH5oOqXYDlWb-IyM-13" value="RAT" style="rounded=0;whiteSpace=wrap;html=1;fillColor=#fff2cc;strokeColor=#d6b656;" vertex="1" parent="1">
          <mxGeometry x="560" y="800" width="120" height="60" as="geometry" />
        </mxCell>
        <mxCell id="WFalGH5oOqXYDlWb-IyM-14" value="数据库" style="rounded=0;whiteSpace=wrap;html=1;fillColor=#ffcc99;strokeColor=#36393d;" vertex="1" parent="1">
          <mxGeometry x="60" y="320" width="120" height="240" as="geometry" />
        </mxCell>
        <mxCell id="WFalGH5oOqXYDlWb-IyM-21" value="" style="endArrow=none;html=1;" edge="1" parent="1">
          <mxGeometry width="50" height="50" relative="1" as="geometry">
            <mxPoint x="40" y="160" as="sourcePoint" />
            <mxPoint x="730" y="160" as="targetPoint" />
          </mxGeometry>
        </mxCell>
        <mxCell id="WFalGH5oOqXYDlWb-IyM-22" value="&lt;b&gt;&lt;font style=&quot;font-size: 16px&quot;&gt;业务相关api&lt;/font&gt;&lt;/b&gt;" style="text;html=1;strokeColor=none;fillColor=none;align=center;verticalAlign=middle;whiteSpace=wrap;rounded=0;" vertex="1" parent="1">
          <mxGeometry x="60" y="90" width="120" height="50" as="geometry" />
        </mxCell>
        <mxCell id="WFalGH5oOqXYDlWb-IyM-23" value="&lt;font size=&quot;3&quot;&gt;&lt;b&gt;模块&lt;/b&gt;&lt;/font&gt;" style="text;html=1;strokeColor=none;fillColor=none;align=center;verticalAlign=middle;whiteSpace=wrap;rounded=0;" vertex="1" parent="1">
          <mxGeometry x="320" y="90" width="120" height="50" as="geometry" />
        </mxCell>
        <mxCell id="WFalGH5oOqXYDlWb-IyM-24" value="&lt;font size=&quot;3&quot;&gt;&lt;b&gt;设备操作api&lt;/b&gt;&lt;/font&gt;" style="text;html=1;strokeColor=none;fillColor=none;align=center;verticalAlign=middle;whiteSpace=wrap;rounded=0;" vertex="1" parent="1">
          <mxGeometry x="560" y="90" width="120" height="50" as="geometry" />
        </mxCell>
        <mxCell id="WFalGH5oOqXYDlWb-IyM-39" style="edgeStyle=orthogonalEdgeStyle;rounded=0;orthogonalLoop=1;jettySize=auto;html=1;entryX=0.5;entryY=0;entryDx=0;entryDy=0;" edge="1" parent="1" source="WFalGH5oOqXYDlWb-IyM-31" target="WFalGH5oOqXYDlWb-IyM-12">
          <mxGeometry relative="1" as="geometry" />
        </mxCell>
        <mxCell id="WFalGH5oOqXYDlWb-IyM-40" value="4. 推送任务" style="edgeLabel;html=1;align=center;verticalAlign=middle;resizable=0;points=[];" vertex="1" connectable="0" parent="WFalGH5oOqXYDlWb-IyM-39">
          <mxGeometry x="-0.35" relative="1" as="geometry">
            <mxPoint as="offset" />
          </mxGeometry>
        </mxCell>
        <mxCell id="WFalGH5oOqXYDlWb-IyM-31" value="设备管理器" style="rounded=0;whiteSpace=wrap;html=1;fillColor=#dae8fc;strokeColor=#6c8ebf;" vertex="1" parent="1">
          <mxGeometry x="560" y="480" width="120" height="60" as="geometry" />
        </mxCell>
        <mxCell id="WFalGH5oOqXYDlWb-IyM-49" value="" style="shape=curlyBracket;whiteSpace=wrap;html=1;rounded=1;" vertex="1" parent="1">
          <mxGeometry x="720" y="430" width="20" height="160" as="geometry" />
        </mxCell>
        <mxCell id="WFalGH5oOqXYDlWb-IyM-51" value="设备任务状态" style="ellipse;whiteSpace=wrap;html=1;fillColor=#f8cecc;strokeColor=#b85450;" vertex="1" parent="1">
          <mxGeometry x="760" y="480" width="100" height="60" as="geometry" />
        </mxCell>
      </root>
    </mxGraphModel>
  </diagram>
</mxfile>
